<?xml version="1.0" encoding="UTF-8"?><svg id="Capa_1" xmlns="http://www.w3.org/2000/svg" viewBox="0 0 808.53 813.28"><path d="M370.98,12.32c22.37,0,44.73,0,67.1,0,12.57,1.86,25.2,3.39,37.7,5.65,218.27,39.44,363.11,251,321.28,469.17-41.25,215.17-247.65,358.8-463.44,318.04-159.9-30.21-264.13-127.15-314.31-281.91-8.28-25.54-11.86-52.1-15.06-78.68v-65.54c2.49-18.51,4.23-37.17,8.92-55.29C53.52,167.93,151.02,67.78,305.86,23.66c21.28-6.07,43.25-8.5,65.12-11.34Zm-13.48,510.46h-.05c0,25.75,.08,51.49-.05,77.24-.03,6.57,2.43,10.74,9.29,10.8,17.68,.17,35.37,.1,53.05,.04,5.58-.02,8.75-2.83,8.92-8.58,.09-3.12,.13-6.24,.14-9.36,.01-47.85-.02-95.7,.04-143.55,.01-10.99,.57-11.44,11.42-11.48,14.56-.04,29.13,.04,43.69-.05,9.71-.06,12.66-2.33,13.91-11.95,2.11-16.22,3.96-32.49,5.42-48.78,.96-10.66-1.94-13.51-12.81-13.61-16.64-.15-33.29-.02-49.93-.09-11.05-.05-11.7-.6-11.7-11.28,0-14.82-.33-29.63,.79-44.44,1.21-15.95,8.85-24.66,24.51-27.61,11.63-2.19,23.34-.95,35.02-1.34,9.65-.32,12.44-2.98,12.52-12.75,.12-13.52,.13-27.05-.02-40.57-.1-8.91-3.4-12.58-12.15-12.64-19.49-.13-39.07-1.32-58.43,1.54-31.13,4.6-53.99,20.57-66.03,50.38-5.02,12.43-7.29,25.48-7.51,38.82-.28,16.9-.38,33.81,0,50.71,.17,7.32-2.82,9.64-9.66,9.47-10.66-.26-21.32-.15-31.98,.01-8.82,.13-12.39,2.9-12.59,11.31-.42,17.15-.42,34.33,0,51.48,.2,8.17,4.15,11.23,12.69,11.34,10.14,.12,20.28,.01,30.43,.06,10.84,.05,11.05,.24,11.07,10.77,.03,24.71,.01,49.41,.01,74.12Z"/></svg>